<svg width="36" height="62" viewBox="0 0 36 62" fill="none" xmlns="http://www.w3.org/2000/svg">
<path d="M11.5451 55.2111L12.2778 50.0194H7.08941L3.76254 57H0L5.6042 45.2167H1.68324L1.94068 43.3694H17.7433L17.4859 45.2167H9.36674L7.96074 48.1722H16.3175L15.2284 55.6778C15.1756 56.0537 14.9973 56.3713 14.6937 56.6306C14.3901 56.8769 14.0468 57 13.664 57H9.7826L11.5451 55.2111Z" fill="#13171F"/>
<path d="M29.6235 44.8472H36L34.4554 55.7167C34.3894 56.0926 34.2177 56.3454 33.9405 56.475C33.6633 56.6046 33.3398 56.6694 32.9702 56.6694H30.5542L31.4057 55.9306L32.7325 46.6944H32.4751L29.6235 56.6694H27.366L30.2176 46.6944H29.6631L26.7917 56.6694H24.5342L27.0887 47.8028H25.8015L27.267 43.4667L26.8709 43H30.2572L29.6235 44.8472ZM21.9202 45.9556H22.6727L23.1084 43H25.7421L25.3065 45.9556H25.6827L25.4253 47.8028H25.049L24.554 51.2056L25.3263 51.1278L25.0688 52.975L24.2767 53.0722L23.7222 57H20.7122L21.2271 53.3833L18.1775 53.7139L18.4547 51.8667L21.5043 51.5361L22.039 47.8028H21.4647L21.0291 49.65H18.7715L19.9993 44.6139L19.5637 44.1083H22.3757L21.9202 45.9556Z" fill="#13171F"/>
<path d="M14.7123 9.34027C14.7123 9.34027 7.45344 12.4024 5.9365 20.7453C0.475445 6.48593 17.8826 5.42413 18.486 1.32441C19.5891 4.62797 19.5974 7.86849 18.4135 10.3922C16.4036 14.6778 10.9728 17.5591 9.69101 23.0969C13.2817 16.0001 20.3071 14.7643 25.335 12.0749C30.4498 9.33908 29.974 3.82786 24.0528 1.18485C22.2674 0.387898 20.2679 0.0266944 18.1978 0.001319C9.34797 -0.105734 2.00103 7.14807 2 15.9982C1.99948 20.4805 3.84222 24.5318 6.81132 27.4365C6.79574 22.6929 7.9853 15.0739 14.7123 9.34027Z" fill="#346BFA"/>
<path d="M30.3711 5.48742C33.2648 9.81473 33.7168 17.1022 30.3454 21.5493C26.2865 26.9035 17.0561 24.9758 12.7808 29.0025C16.2889 21.7721 23.6577 19.3028 23.6577 19.3028C23.6577 19.3028 13.2816 19.4618 7.21021 31.8652C7.21048 31.8648 8.48687 30.7816 9.89474 29.7979C12.2717 31.1971 15.042 32 17.9998 32C26.8364 32 33.9998 24.8366 33.9998 16C33.9998 10.013 30.3715 5.48742 30.3711 5.48742Z" fill="#346BFA"/>
</svg>
