<svg width="1024" height="1024" viewBox="0 0 1024 1024" fill="none" xmlns="http://www.w3.org/2000/svg">
<path d="M352 872C352 849.9 369.9 832 392 832H632C654.1 832 672 849.9 672 872C672 894.1 654.1 912 632 912H392C369.9 912 352 894.1 352 872Z" fill="#346BFA"/>
<path d="M840 160H184C117.7 160 64 213.7 64 280V632C64 698.3 117.7 752 184 752H840C906.3 752 960 698.3 960 632V280C960 213.7 906.3 160 840 160ZM700.1 462.7L561.7 542.6C552.5 547.9 541.6 549.3 531.3 546.6C521.1 543.9 512.3 537.1 507 528L467 458.7L363 518.8C343.9 529.8 319.4 523.3 308.4 504.2C297.4 485.1 303.9 460.6 323 449.6L461.8 369.5C471 364.2 481.9 362.8 492.2 365.5C502.4 368.2 511.2 375 516.5 384.1L556.5 453.4L660.2 393.5C679.3 382.5 703.8 389 714.8 408.1C725.8 427.2 719.3 451.6 700.1 462.7Z" fill="#346BFA"/>
</svg>
