<svg width="1024" height="1024" viewBox="0 0 1024 1024" fill="none" xmlns="http://www.w3.org/2000/svg">
<path d="M824 250H564.5C550.5 250 537.6 242.7 530.3 230.8L499.1 179.5C477.3 143.8 438.5 121.9 396.6 121.9H200C133.7 121.9 80 175.6 80 241.9V775.9C80 842.2 133.7 895.9 200 895.9H824C890.3 895.9 944 842.2 944 775.9V370C944 303.7 890.3 250 824 250ZM592 736H432C409.9 736 392 718.1 392 696C392 673.9 409.9 656 432 656H592C614.1 656 632 673.9 632 696C632 718.1 614.1 736 592 736Z" fill="#346BFA"/>
</svg>
