<svg width="1024" height="1024" viewBox="0 0 1024 1024" fill="none" xmlns="http://www.w3.org/2000/svg">
<path d="M872 896H380C321.2 896 266 873.1 224.4 831.6C182.8 790.1 160 734.8 160 676V342.6C160 320.7 150.9 299.6 135 284.5L76.4997 229C60.4997 213.8 59.7997 188.5 74.9997 172.5C90.1997 156.5 115.5 155.8 131.5 171L190.1 226.5C221.8 256.6 240 298.9 240 342.6V676C240 753.2 302.8 816 380 816H872C894.1 816 912 833.9 912 856C912 878.1 894.1 896 872 896Z" fill="#346BFA"/>
<path d="M172 912C205.137 912 232 885.137 232 852C232 818.863 205.137 792 172 792C138.863 792 112 818.863 112 852C112 885.137 138.863 912 172 912Z" fill="#346BFA"/>
<path d="M752 248H400C333.7 248 280 301.7 280 368V656C280 722.3 333.7 776 400 776H752C818.3 776 872 722.3 872 656V368C872 301.7 818.3 248 752 248ZM656 552H496C473.9 552 456 534.1 456 512C456 489.9 473.9 472 496 472H656C678.1 472 696 489.9 696 512C696 534.1 678.1 552 656 552Z" fill="#346BFA"/>
</svg>
