<svg width="1024" height="1024" viewBox="0 0 1024 1024" fill="none" xmlns="http://www.w3.org/2000/svg">
<path d="M840 489C906.274 489 961.633 434.242 943.21 370.58C938.835 355.464 933.618 340.572 927.573 325.977C906.164 274.292 874.785 227.33 835.227 187.773C795.67 148.215 748.708 116.836 697.023 95.4276C682.428 89.3819 667.536 84.1648 652.42 79.7904C588.758 61.3675 534 116.726 534 183V369C534 435.274 587.726 489 654 489H840Z" fill="#346BFA"/>
<path d="M884 529C906.091 529 924.193 546.947 922.141 568.943C915.523 639.888 891.35 708.303 851.532 767.895C804.283 838.608 737.126 893.723 658.554 926.268C579.982 958.814 493.523 967.329 410.111 950.738C326.699 934.146 250.081 893.192 189.944 833.056C129.808 772.919 88.854 696.301 72.2623 612.889C55.6707 529.477 64.1861 443.018 96.7318 364.446C129.277 285.874 184.392 218.717 255.105 171.468C314.697 131.65 383.112 107.477 454.057 100.859C476.053 98.807 494 116.909 494 139V351.611C494 373.702 475.724 391.052 454.562 397.393C441.539 401.295 429.097 407.13 417.671 414.765C395.077 429.862 377.468 451.319 367.069 476.424C356.67 501.528 353.95 529.152 359.251 555.803C364.552 582.454 377.637 606.934 396.851 626.149C416.066 645.363 440.546 658.448 467.197 663.749C493.848 669.05 521.472 666.33 546.576 655.931C571.681 645.532 593.138 627.923 608.235 605.329C615.87 593.903 621.705 581.461 625.607 568.438C631.948 547.276 649.298 529 671.389 529H884Z" fill="#346BFA"/>
</svg>
