<svg width="1024" height="1024" viewBox="0 0 1024 1024" fill="none" xmlns="http://www.w3.org/2000/svg">
<path d="M872 896H380C321.2 896 266 873.1 224.4 831.6C182.8 790.1 160 734.8 160 676V342.6C160 320.7 150.9 299.6 135 284.5L76.4997 229C60.4997 213.8 59.7997 188.5 74.9997 172.5C90.1997 156.5 115.5 155.8 131.5 171L190.1 226.5C221.8 256.6 240 298.9 240 342.6V676C240 753.2 302.8 816 380 816H872C894.1 816 912 833.9 912 856C912 878.1 894.1 896 872 896Z" fill="#346BFA"/>
<path d="M172 912C205.137 912 232 885.137 232 852C232 818.863 205.137 792 172 792C138.863 792 112 818.863 112 852C112 885.137 138.863 912 172 912Z" fill="#346BFA"/>
<path d="M752 776H400C333.8 776 280 722.2 280 656V368C280 301.8 333.8 248 400 248H752C818.2 248 872 301.8 872 368V656C872 722.2 818.2 776 752 776ZM400 328C377.9 328 360 345.9 360 368V656C360 678.1 377.9 696 400 696H752C774.1 696 792 678.1 792 656V368C792 345.9 774.1 328 752 328H400Z" fill="#346BFA"/>
<path d="M496 472H656C678.1 472 696 489.9 696 512C696 534.1 678.1 552 656 552H496C473.9 552 456 534.1 456 512C456 489.9 473.9 472 496 472Z" fill="#346BFA"/>
</svg>
