<svg width="1024" height="1024" viewBox="0 0 1024 1024" fill="none" xmlns="http://www.w3.org/2000/svg">
<path d="M948.6 781.5L909.6 335.5C904.2 273.6 852.3 226 790 226H708.3C690.6 133.7 609.5 64 512 64C414.5 64 333.4 133.7 315.6 226H234C171.8 226 119.9 273.6 114.5 335.5L75.5003 781.5C69.3003 851.7 124.6 912 195 912H829C899.4 912 954.7 851.7 948.6 781.5ZM512 144C565 144 610 178.4 625.9 226H398.1C414 178.4 459 144 512 144ZM632 736H392C369.9 736 352 718.1 352 696C352 673.9 369.9 656 392 656H632C654.1 656 672 673.9 672 696C672 718.1 654.1 736 632 736Z" fill="#346BFA"/>
</svg>
