<svg width="1024" height="1024" viewBox="0 0 1024 1024" fill="none" xmlns="http://www.w3.org/2000/svg">
<path d="M872 538C849.9 538 832 520.1 832 498V272C832 227.9 796.1 192 752 192H320C275.9 192 240 227.9 240 272V383C240 405.1 222.1 423 200 423C177.9 423 160 405.1 160 383V272C160 183.8 231.8 112 320 112H752C840.2 112 912 183.8 912 272V498C912 520.1 894.1 538 872 538Z" fill="#858B97"/>
<path d="M509.3 915.8C428.4 915.8 387.2 898.9 353.2 884.9C332.7 876.5 317.9 870.4 296.5 868.9C234.5 864.4 164.6 864 103.9 864C81.8001 864 63.9001 846.1 63.9001 824C63.9001 801.9 81.8001 784 103.9 784C166 784 237.6 784.4 302.3 789.1C336.5 791.6 360.4 801.4 383.5 810.9C418.7 825.3 455 840.3 546.3 834.5C627.7 829.4 693.8 805.9 734.9 787C783.4 764.8 825.7 735.7 848.2 709.1C851.6 705.1 853.1 701.1 853.6 698.5C850.8 698.1 846.1 697.9 839.3 699C806.4 704 769.7 711.8 730.9 720.1C655.7 736.3 577.7 753 509 753C474.3 753 414.9 733.7 382.6 722.2C361.8 714.8 350.9 691.9 358.3 671.1C365.7 650.3 388.6 639.4 409.4 646.8C421.1 651 432.6 654.8 443.5 658.1C444.3 658.2 445.1 658.3 445.9 658.4C447.9 658.7 450 659.1 452.7 659.6C462.3 661.3 480.3 664.5 497.3 664.2C514.6 663.9 521.3 660.1 522.2 659.1C522.4 658.7 523.1 656.7 523 652.6C522.9 648.6 508.9 627.9 445.2 607.8C393.4 591.6 331.9 583 298 583C233.5 583 161.9 608.9 124.6 634.5C106.4 647 81.5001 642.3 69.0001 624.1C56.5001 605.9 61.2001 581 79.4001 568.5C127 535.9 213 503 298 503C336.8 503 407 512 469.3 531.6C504.6 542.7 533.3 556.1 554.5 571.2C576.3 586.7 602.4 613.2 603 651.4C603.1 655.8 602.9 660.1 602.5 664.1C638.9 658.2 677 650 714.4 642C754.4 633.4 792.2 625.4 827.5 620C848.6 616.8 867.4 618.1 883.6 624C901.5 630.5 915.6 642.2 924.4 658C941.6 688.8 935.7 730.1 909.6 760.9C879 797.1 828.9 832.3 768.5 859.9C700.7 890.9 625.7 909.8 551.6 914.5C536.3 915.4 522.3 915.8 509.3 915.8Z" fill="#858B97"/>
<path d="M606 412H466C421.9 412 386 376.1 386 332V112H686V332C686 376.1 650.1 412 606 412ZM466 192V332H606V192H466Z" fill="#CFD2D7"/>
</svg>
