<svg width="1024" height="1024" viewBox="0 0 1024 1024" fill="none" xmlns="http://www.w3.org/2000/svg">
<path d="M63.0645 576.328C115.064 538.828 188.864 502.828 307.164 502.828C425.564 502.828 600.964 554.827 602.564 649.427C602.664 654.427 602.364 659.127 601.664 663.427C682.664 649.327 751.964 631.528 830.064 619.328C907.264 607.228 953.064 665.828 924.564 736.828C891.064 806.828 723.564 902.728 570.064 912.328C399.564 930.828 357.064 873.128 291.064 868.328C225.064 863.528 126.164 863.828 63.0645 863.828V576.328Z" fill="#346BFA"/>
<path fill-rule="evenodd" clip-rule="evenodd" d="M532.5 86C743.749 86 915 257.251 915 468.5C915 509.622 908.509 549.228 896.499 586.351C878.238 578.45 856.564 575.438 833.45 579.061C755.091 589.42 722.418 597.123 638.993 615.758C638.993 611.35 638.994 607.567 638 601C617.624 507.387 410.806 463 307.164 463C243.117 463 192.113 473.552 150.551 489.182C150.186 482.334 150 475.439 150 468.5C150 257.251 321.251 86 532.5 86ZM624.284 253.716C608.663 238.095 583.337 238.095 567.716 253.716C552.095 269.337 552.095 294.663 567.716 310.284L584.432 327H397C374.909 327 357 344.909 357 367C357 389.091 374.909 407 397 407H584.137L567.716 423.421C552.095 439.042 552.095 464.369 567.716 479.99C583.337 495.611 608.663 495.611 624.284 479.99L694.995 409.279C718.426 385.848 718.426 347.858 694.995 324.427L624.284 253.716Z" fill="#346BFA"/>
</svg>
