<svg width="1024" height="1024" viewBox="0 0 1024 1024" fill="none" xmlns="http://www.w3.org/2000/svg">
<path d="M553 158H183C116.7 158 63 211.7 63 278V648C63 714.3 116.7 768 183 768H673V278C673 211.7 619.3 158 553 158ZM488 648H248C225.9 648 208 630.1 208 608C208 585.9 225.9 568 248 568H488C510.1 568 528 585.9 528 608C528 630.1 510.1 648 488 648Z" fill="#346BFA"/>
<path d="M593 408H742.6C772.8 408 801.8 419.4 824 439.8L920.4 528.8C945 551.6 959 583.5 959 617V648C959 714.3 905.3 768 839 768H593V408Z" fill="#346BFA"/>
<path d="M827 767.5C827 838.2 769.7 895.5 699 895.5C628.3 895.5 571 838.2 571 767.5H651C651 794 672.5 815.5 699 815.5C725.5 815.5 747 794 747 767.5H827Z" fill="#346BFA"/>
<path d="M451 768C451 838.7 393.7 896 323 896C252.3 896 195 838.7 195 768H275C275 794.5 296.5 816 323 816C349.5 816 371 794.5 371 768H451Z" fill="#346BFA"/>
</svg>
