<svg width="1024" height="1024" viewBox="0 0 1024 1024" fill="none" xmlns="http://www.w3.org/2000/svg">
<path d="M352 872C352 849.9 369.9 832 392 832H632C654.1 832 672 849.9 672 872C672 894.1 654.1 912 632 912H392C369.9 912 352 894.1 352 872Z" fill="#346BFA"/>
<path d="M541.8 547.8C538.3 547.8 534.9 547.3 531.4 546.4C521.2 543.7 512.4 536.9 507.1 527.8L467.1 458.5L363 518.6C343.9 529.6 319.4 523.1 308.4 504C297.4 484.9 303.9 460.4 323 449.4L461.8 369.3C480.9 358.3 505.4 364.8 516.4 383.9L556.4 453.2L660.1 393.3C679.2 382.3 703.7 388.8 714.7 407.9C725.7 427 719.2 451.5 700.1 462.5L561.7 542.4C555.6 546 548.7 547.8 541.8 547.8Z" fill="#346BFA"/>
<path d="M840 752H184C117.8 752 64 698.2 64 632V280C64 213.8 117.8 160 184 160H840C906.2 160 960 213.8 960 280V632C960 698.2 906.2 752 840 752ZM184 240C161.9 240 144 257.9 144 280V632C144 654.1 161.9 672 184 672H840C862.1 672 880 654.1 880 632V280C880 257.9 862.1 240 840 240H184Z" fill="#346BFA"/>
</svg>
