<svg width="1024" height="1024" viewBox="0 0 1024 1024" fill="none" xmlns="http://www.w3.org/2000/svg">
<path d="M850.6 211.3L558.8 75.5995C526.4 60.4995 488.9 60.6995 456.6 75.9995L172.4 211.3C130.6 231.2 104 273.4 104 319.7V707.9C104 754.6 131.1 797 173.4 816.7L457.6 948.8C489.4 963.6 526 963.7 557.8 949.2L849.6 816.6C892.4 797.1 919.9 754.4 919.9 707.4V320.1C920 273.5 892.9 231 850.6 211.3ZM754.5 550.9L674.5 587.5V411.5C674.5 395.9 665.5 381.8 651.4 375.2L227.1 185.2L322 140.1L685.1 302.7C727.5 322.4 754.5 364.8 754.5 411.5V550.9Z" fill="#346BFA"/>
</svg>
