<svg width="1024" height="1024" viewBox="0 0 1024 1024" fill="none" xmlns="http://www.w3.org/2000/svg">
<path d="M861.3 201.5L556 81.2996C527.7 70.1996 496.3 70.1996 468.1 81.2996L162.7 201.5C132.1 213.5 112 243.1 112 275.9V608.9C112 699.1 162.6 781.7 243 822.7L475.7 941.4C498.5 953 525.6 953 548.4 941.4L781 822.8C861.4 781.8 912 699.2 912 609V276C912 243.1 891.9 213.6 861.3 201.5ZM701 518.5L562.6 598.4C556.5 602 549.6 603.8 542.7 603.8C539.2 603.8 535.8 603.3 532.3 602.4C522.1 599.7 513.3 592.9 508 583.8L468 514.5L363.9 574.6C344.8 585.6 320.3 579.1 309.3 560C298.3 540.9 304.8 516.4 323.9 505.4L462.7 425.3C481.8 414.3 506.3 420.8 517.3 439.9L557.3 509.2L661 449.3C680.1 438.3 704.6 444.8 715.6 463.9C726.6 483 720.1 507.5 701 518.5Z" fill="#346BFA"/>
</svg>
