<svg width="1024" height="1024" viewBox="0 0 1024 1024" fill="none" xmlns="http://www.w3.org/2000/svg">
<path d="M144 160H880C924.2 160 960 195.8 960 240V360C960 404.2 924.2 440 880 440H144C99.8 440 64 404.2 64 360V240C64 195.8 99.8 160 144 160Z" fill="#346BFA"/>
<path d="M160 360L181.9 798C185.1 861.9 237.8 912 301.8 912H722.3C786.2 912 839 861.9 842.2 798L864 360H160ZM592 600H432C409.9 600 392 582.1 392 560C392 537.9 409.9 520 432 520H592C614.1 520 632 537.9 632 560C632 582.1 614.1 600 592 600Z" fill="#346BFA"/>
</svg>
