<svg width="1024" height="1024" viewBox="0 0 1024 1024" fill="none" xmlns="http://www.w3.org/2000/svg">
<path d="M761.6 160C827.2 160.8 880 214.2 880 280V382H800V280C800 257.9 782.1 240 760 240H184C161.9 240 144 257.9 144 280V744C144 766.1 161.9 784 184 784H760C782.1 784 800 766.1 800 744V642H880V744V745.6C879.2 810.6 826.6 863.2 761.6 864H760H184C118.2 864 64.8 811.1 64 745.6V744V280C64 213.7 117.7 160 184 160H760H761.6Z" fill="#346BFA"/>
<path d="M960 642H792C720.3 642 662 583.7 662 512C662 440.3 720.3 382 792 382H960V642ZM792 462C764.4 462 742 484.4 742 512C742 539.6 764.4 562 792 562H880V462H792Z" fill="#346BFA"/>
<path d="M499.7 353.3C512.8 335.5 537.8 331.6 555.6 344.7C573.4 357.8 577.3 382.8 564.2 400.6L539.8 434H552C574.1 434 592 451.9 592 474C592 496.1 574.1 514 552 514H512V554H552C574.1 554 592 571.9 592 594C592 616.1 574.1 634 552 634H512V647C512 669.1 494.1 687 472 687C449.9 687 432 669.1 432 647V634H392C369.9 634 352 616.1 352 594C352 571.9 369.9 554 392 554H432V514H392C369.9 514 352 496.1 352 474C352 451.9 369.9 434 392 434H405.3L380.3 401.3C366.9 383.8 370.2 358.7 387.7 345.2C405.2 331.8 430.3 335.1 443.8 352.6L472.7 390.3L499.7 353.3Z" fill="#346BFA"/>
</svg>
