<svg width="1024" height="1024" viewBox="0 0 1024 1024" fill="none" xmlns="http://www.w3.org/2000/svg">
<path d="M673 768H183C116.8 768 63 714.2 63 648V278C63 211.8 116.8 158 183 158H553C619.2 158 673 211.8 673 278V768ZM183 238C160.9 238 143 255.9 143 278V648C143 670.1 160.9 688 183 688H593V278C593 255.9 575.1 238 553 238H183Z" fill="#346BFA"/>
<path d="M528 608C528 630.1 510.1 648 488 648H248C225.9 648 208 630.1 208 608C208 585.9 225.9 568 248 568H488C510.1 568 528 585.9 528 608Z" fill="#346BFA"/>
<path d="M839 768H593V408H742.6C772.9 408 801.8 419.3 824 439.8L920.4 528.8C944.9 551.4 959 583.6 959 617V648C959 714.2 905.2 768 839 768ZM673 688H839C861.1 688 879 670.1 879 648V617C879 605.9 874.3 595.2 866.1 587.6L769.7 498.6C762.3 491.8 752.7 488 742.6 488H673V688Z" fill="#346BFA"/>
<path d="M827 767.5C827 838.2 769.7 895.5 699 895.5C628.3 895.5 571 838.2 571 767.5H651C651 794 672.5 815.5 699 815.5C725.5 815.5 747 794 747 767.5H827Z" fill="#346BFA"/>
<path fill-rule="evenodd" clip-rule="evenodd" d="M451 768C451 838.7 393.7 896 323 896C252.3 896 195 838.7 195 768H275C275 794.5 296.5 816 323 816C349.5 816 371 794.5 371 768H451Z" fill="#346BFA"/>
</svg>
