<svg width="1024" height="1024" viewBox="0 0 1024 1024" fill="none" xmlns="http://www.w3.org/2000/svg">
<path d="M508.2 960C490.9 960 473.7 956.3 457.6 948.8L173.4 816.6C131.2 797 104 754.3 104 707.8V319.6C104 296.9 110.4 274.7 122.5 255.5C134.6 236.3 151.9 221 172.4 211.2L456.7 76.0003C489.1 60.6003 526.3 60.4003 558.9 75.6003L850.7 211.3C892.9 230.9 920.1 273.6 920.1 320.1V707.3C920.1 754.2 892.5 797.1 849.8 816.5L557.9 949.2C542.1 956.4 525.1 960 508.2 960ZM508.2 144.4C502.3 144.4 496.5 145.7 491 148.3L206.8 283.5C192.9 290.1 184 304.3 184 319.6V707.8C184 723.3 193.1 737.5 207.1 744.1L491.3 876.2C501.9 881.1 514.1 881.2 524.7 876.3L816.5 743.7C830.7 737.2 839.9 722.9 839.9 707.3V320.1C839.9 304.6 830.8 290.4 816.8 283.8L525.1 148.1C519.7 145.6 514 144.4 508.2 144.4Z" fill="#858B97"/>
<path d="M506.1 505.1L141.9 333.2C121.9 323.8 113.4 299.9 122.8 280C132.2 260 156.1 251.5 176 260.9L506.8 417L852.5 260.6C872.6 251.5 896.3 260.4 905.4 280.6C914.5 300.7 905.6 324.4 885.4 333.5L506.1 505.1Z" fill="#858B97"/>
<path d="M508 954C485.9 954 468 936.1 468 914V462C468 439.9 485.9 422 508 422C530.1 422 548 439.9 548 462V914C548 936.1 530.1 954 508 954Z" fill="#858B97"/>
<path d="M685.1 302.7C727.5 322.4 754.5 364.8 754.5 411.5V550.9L674.5 587.5V411.5C674.5 395.9 665.5 381.8 651.4 375.2L227.1 185.2L322 140.1L685.1 302.7Z" fill="#CFD2D7"/>
</svg>
