<svg width="1024" height="1024" viewBox="0 0 1024 1024" fill="none" xmlns="http://www.w3.org/2000/svg">
<path d="M512 64C758.871 64 959 243.086 959 464C959 637.828 835.091 785.758 662 840.922C615.114 855.864 604 960.5 512 960C420.359 959.502 408.975 856.672 362.548 841.101L362 840.922C188.909 785.758 65 637.828 65 464C65 243.086 265.129 64 512 64ZM400.963 514.938C395.959 493.443 374.488 480.059 352.982 485.04C331.462 490.025 318.056 511.512 323.04 533.032L323.052 533.079L323.062 533.129C323.07 533.162 323.079 533.198 323.088 533.234C323.105 533.308 323.125 533.388 323.146 533.475C323.187 533.647 323.236 533.846 323.292 534.068C323.404 534.513 323.546 535.057 323.72 535.691C324.067 536.96 324.544 538.601 325.175 540.56C326.434 544.47 328.319 549.702 331.021 555.812C336.398 567.967 345.204 584.039 359.119 600.149C387.917 633.491 436.164 664 511.581 664C586.981 664 635.367 633.511 664.336 600.294C678.347 584.228 687.266 568.197 692.733 556.066C695.481 549.97 697.406 544.75 698.694 540.848C699.34 538.893 699.83 537.257 700.188 535.991C700.366 535.358 700.513 534.816 700.628 534.373C700.686 534.152 700.735 533.954 700.778 533.782C700.8 533.696 700.82 533.616 700.838 533.543C700.847 533.506 700.855 533.471 700.863 533.438C700.867 533.421 700.873 533.397 700.875 533.389L700.887 533.342C706.042 511.862 692.807 490.269 671.327 485.113C649.862 479.962 628.285 493.175 623.11 514.629C623.112 514.622 623.117 514.6 623.12 514.586C623.127 514.559 623.134 514.533 623.14 514.509C623.152 514.46 623.162 514.416 623.172 514.378C623.191 514.302 623.204 514.247 623.213 514.215C623.209 514.229 623.204 514.247 623.197 514.27C623.141 514.469 622.993 514.981 622.735 515.76C622.218 517.326 621.28 519.919 619.803 523.196C616.82 529.814 611.836 538.782 604.046 547.715C589.412 564.495 562.594 584.004 511.581 584.004C460.585 584.004 434.045 564.516 419.659 547.859C411.982 538.971 407.097 530.044 404.181 523.451C402.737 520.187 401.824 517.606 401.322 516.048C401.073 515.273 400.93 514.765 400.876 514.569C400.849 514.472 400.846 514.453 400.862 514.52C400.871 514.553 400.885 514.608 400.903 514.685C400.913 514.723 400.923 514.767 400.935 514.816C400.94 514.841 400.947 514.867 400.953 514.895C400.956 514.908 400.961 514.931 400.963 514.938Z" fill="#346BFA"/>
</svg>
