<svg width="1024" height="1024" viewBox="0 0 1024 1024" fill="none" xmlns="http://www.w3.org/2000/svg">
<path d="M840 409H654V489H840V409Z" fill="#CFD2D7"/>
<path d="M534 369V183C534 116.7 588.8 61.3999 652.4 79.7999C667.5 84.1999 682.4 89.3999 697 95.3999C748.7 116.8 795.6 148.2 835.2 187.7C874.8 227.3 906.1 274.2 927.5 325.9C933.5 340.5 938.8 355.4 943.1 370.5C961.6 434.2 906.3 489 840 489V409C851.6 409 860.3 404.1 864.4 399.6C866.2 397.6 866.7 396.3 866.7 395.9C866.7 395.8 867 395 866.3 392.8C862.7 380.5 858.5 368.4 853.6 356.6C836.2 314.6 810.7 276.5 778.6 244.3C746.5 212.2 708.3 186.7 666.3 169.3C654.4 164.4 642.4 160.2 630.1 156.6C627.8 155.9 627 156.2 627 156.3C626.7 156.4 625.3 156.8 623.3 158.6C618.9 162.7 613.9 171.3 613.9 183V369C613.9 391.1 631.8 409 653.9 409V489H652.3C587.3 488.2 534.7 435.6 533.9 370.6L534 369Z" fill="#CFD2D7"/>
<path d="M884 529H671.4C649.3 529 632 547.3 625.6 568.4C621.7 581.4 615.9 593.9 608.2 605.3C593.1 627.9 571.6 645.501 546.5 655.901C521.4 666.301 493.8 669.001 467.1 663.701C440.4 658.401 416 645.3 396.8 626.1C377.6 606.9 364.5 582.4 359.2 555.8C354 529.6 356.5 502.4 366.5 477.6L367 476.4C377.2 451.7 394.5 430.5 416.5 415.5L417.6 414.8C428.7 407.4 440.7 401.7 453.3 397.8L454.5 397.4C475.3 391.2 493.4 374.2 493.9 352.7V351.7V139C493.9 116.9 476 98.8005 454 100.9C383.1 107.5 314.6 131.7 255 171.5C184.3 218.7 129.2 285.9 96.6 364.5L95.8 366.3C63.9 444.4 55.6 530.101 72.1 612.901L72.5 614.901C89.3 697.601 130.1 773.4 189.8 833.1L191.2 834.5C251.1 893.9 327.2 934.3 410 950.8L412 951.201C494.2 967.101 579.2 958.8 656.6 927.1L658.4 926.3C736.4 894 803.1 839.5 850.3 769.6L851.4 767.901C891.2 708.301 915.4 639.9 922 568.9C924.2 546.9 906.1 529 884 529ZM785 723.401C746.5 781.001 691.9 825.8 627.9 852.3C563.9 878.8 493.6 885.701 425.7 872.201C357.8 858.701 295.4 825.401 246.5 776.401C197.6 727.501 164.2 665.1 150.7 597.2C137.2 529.3 144.1 458.9 170.6 395C197.1 331 242 276.4 299.5 237.9C334.5 214.5 373.3 197.7 413.9 188.2V326.8C399.7 332.4 386 339.6 373.1 348.2C337.3 372.1 309.5 406 293 445.8C276.5 485.5 272.2 529.2 280.6 571.4C289 613.6 309.7 652.301 340.1 682.701C370.5 713.101 409.2 733.801 451.4 742.201C493.6 750.601 537.3 746.3 577 729.8C616.7 713.3 650.7 685.5 674.6 649.701C683.2 636.801 690.3 623.2 696 608.9H834.6C825.2 649.6 808.4 688.401 785 723.401Z" fill="#858B97"/>
</svg>
