<svg width="1024" height="1024" viewBox="0 0 1024 1024" fill="none" xmlns="http://www.w3.org/2000/svg">
<path d="M790.3 382H792H880V280C880 213.7 826.3 160 760 160H184C117.7 160 64 213.7 64 280V744C64 810.3 117.7 864 184 864H760C826.3 864 880 810.3 880 744V642H792C720.2 642 662 583.8 662 512C662 440.8 719.3 382.9 790.3 382ZM552.9 554C575 554 592.9 571.9 592.9 594C592.9 616.1 575 634 552.9 634H512.6V647C512.6 669.1 494.5 687 472.5 687C450.5 687 432.4 669.1 432.4 647V634H392.1C370 634 352.1 616.1 352.1 594C352.1 571.9 370 554 392.1 554H432.4V514H392.1C370 514 352.1 496.1 352.1 474C352.1 451.9 370 434 392.1 434H405.7L380.6 401.4C367.1 383.9 370.4 358.8 387.9 345.3C405.4 331.8 430.5 335.1 444 352.6L473.1 390.5L500.5 353.3C513.6 335.5 538.6 331.7 556.4 344.8C574.2 357.9 578 382.9 564.9 400.7L540.4 434H552.9C575 434 592.9 451.9 592.9 474C592.9 496.1 575 514 552.9 514H512.6V554H552.9Z" fill="#346BFA"/>
<path d="M880 462V562H792C764.4 562 742 539.6 742 512C742 484.4 764.4 462 792 462H880Z" fill="#346BFA"/>
</svg>
