<svg width="1024" height="1024" viewBox="0 0 1024 1024" fill="none" xmlns="http://www.w3.org/2000/svg">
<path d="M512 950.2C499.5 950.2 487 947.3 475.7 941.5L243 822.8C203.6 802.7 170.5 772.1 147.4 734.4C124.3 696.7 112 653.3 112 609V276C112 242.9 131.9 213.7 162.7 201.6L468 81.3004C496.3 70.1004 527.6 70.1004 555.9 81.3004L861.2 201.5C892 213.6 911.9 242.8 911.9 275.9V608.9C911.9 653.2 899.7 696.5 876.6 734.3C853.5 772.1 820.4 802.6 781 822.7L548.3 941.5C537 947.3 524.5 950.2 512 950.2ZM497.3 155.7L192 276V609C192 638.5 200.1 667.4 215.6 692.6C231 717.8 253.1 738.2 279.3 751.6L512 870.2L744.7 751.5C771 738.1 793 717.7 808.4 692.5C823.8 667.3 832 638.4 832 608.9V276L526.7 155.7C517.2 152 506.8 152 497.3 155.7Z" fill="#858B97"/>
<path d="M542.7 603.8C539.2 603.8 535.8 603.3 532.3 602.4C522.1 599.7 513.3 592.9 508 583.8L468 514.5L363.9 574.6C344.8 585.6 320.3 579.1 309.3 560C298.3 540.9 304.8 516.4 323.9 505.4L462.7 425.3C481.8 414.3 506.3 420.8 517.3 439.9L557.3 509.2L661 449.3C680.1 438.3 704.6 444.8 715.6 463.9C726.6 483 720.1 507.5 701 518.5L562.6 598.4C556.5 602 549.6 603.8 542.7 603.8Z" fill="#CFD2D7"/>
</svg>
