<svg width="1024" height="1024" viewBox="0 0 1024 1024" fill="none" xmlns="http://www.w3.org/2000/svg">
<path d="M829 912H195C161.4 912 129.2 897.8 106.5 873.1C83.8003 848.4 72.5003 815 75.4003 781.6L114.4 335.6C117 305.6 130.7 277.9 152.9 257.6C175.1 237.3 203.9 226.1 234 226.1H790C820.1 226.1 848.9 237.3 871.1 257.6C893.3 277.9 907 305.6 909.6 335.6L948.6 781.6C951.5 815 940.2 848.4 917.5 873.1C894.8 897.8 862.6 912 829 912ZM234 306C213.1 306 196 321.7 194.2 342.5L155.2 788.5C154.2 799.8 157.9 810.6 165.6 819C173.3 827.4 183.7 832 195.1 832H829C840.4 832 850.8 827.4 858.5 819C866.2 810.6 869.8 799.8 868.9 788.5L829.9 342.5C828.1 321.7 810.9 306 790.1 306H234Z" fill="#858B97"/>
<path d="M712 434H632V264C632 197.8 578.2 144 512 144C445.8 144 392 197.8 392 264V434H312V264C312 153.7 401.7 64 512 64C622.3 64 712 153.7 712 264V434Z" fill="#858B97"/>
<path d="M352 696C352 673.9 369.9 656 392 656H632C654.1 656 672 673.9 672 696C672 718.1 654.1 736 632 736H392C369.9 736 352 718.1 352 696Z" fill="#CFD2D7"/>
<path d="M352 494C385.137 494 412 467.137 412 434C412 400.863 385.137 374 352 374C318.863 374 292 400.863 292 434C292 467.137 318.863 494 352 494Z" fill="#858B97"/>
<path d="M672 494C705.137 494 732 467.137 732 434C732 400.863 705.137 374 672 374C638.863 374 612 400.863 612 434C612 467.137 638.863 494 672 494Z" fill="#858B97"/>
</svg>
