<svg width="1024" height="1024" viewBox="0 0 1024 1024" fill="none" xmlns="http://www.w3.org/2000/svg">
<path d="M64 575.5C116 538 189.8 502 308.1 502C426.5 502 601.9 554 603.5 648.6C603.6 653.6 603.3 658.3 602.6 662.6C683.6 648.5 752.9 630.7 831 618.5C908.2 606.4 954 665 925.5 736C892 806 724.5 901.9 571 911.5C400.5 930 358 872.3 292 867.5C226 862.7 127.1 863 64 863V575.5Z" fill="#346BFA"/>
<path d="M911 732.5C911 732.5 908.4 733.3 895.2 736.7C901.1 730.9 906.4 725.1 911 719.4V732.5Z" fill="#346BFA"/>
<path d="M831 112C875.2 112 911 147.8 911 192V594.3C893.7 581.6 867.2 575.7 831 579.5C764.5 586.5 704.8 602 638.9 615.8C639 614.4 639 612.9 639 611.5C637.5 516.9 426.5 463 308.1 463C248.3 463 199.9 472.2 160 486.1V192C160 147.8 195.8 112 240 112H386V332C386 375.8 421.3 411.4 465 412H466H606C650.2 412 686 376.2 686 332V112H831Z" fill="#346BFA"/>
<path d="M606 192H466V332H606V192Z" fill="#346BFA"/>
</svg>
