<svg width="1024" height="1024" viewBox="0 0 1024 1024" fill="none" xmlns="http://www.w3.org/2000/svg">
<path d="M352.982 485.04C374.488 480.06 395.959 493.443 400.963 514.937C400.962 514.93 400.957 514.908 400.954 514.894C400.947 514.867 400.941 514.841 400.935 514.816C400.923 514.767 400.913 514.723 400.904 514.684C400.885 514.608 400.871 514.553 400.863 514.519C400.846 514.453 400.85 514.472 400.876 514.569C400.93 514.765 401.073 515.273 401.323 516.048C401.824 517.605 402.737 520.187 404.181 523.451C407.097 530.045 411.983 538.971 419.66 547.859C434.046 564.516 460.585 584.004 511.581 584.004C562.594 584.004 589.412 564.495 604.046 547.715C611.837 538.782 616.82 529.815 619.802 523.197C621.28 519.919 622.217 517.326 622.735 515.76C622.992 514.981 623.141 514.469 623.197 514.269C623.203 514.247 623.208 514.229 623.212 514.215C623.204 514.247 623.19 514.302 623.171 514.378C623.162 514.416 623.151 514.46 623.139 514.509C623.133 514.533 623.126 514.559 623.12 514.586C623.116 514.599 623.112 514.622 623.11 514.629C628.284 493.174 649.862 479.962 671.327 485.114C692.808 490.269 706.042 511.861 700.886 533.342L700.875 533.388C700.88 533.365 699.895 537.006 700.875 533.388C700.873 533.397 700.867 533.421 700.863 533.437C700.855 533.471 700.847 533.506 700.838 533.543C700.82 533.616 700.8 533.696 700.778 533.782C700.735 533.954 700.685 534.151 700.628 534.373C700.512 534.816 700.366 535.358 700.187 535.991C699.83 537.256 699.34 538.893 698.694 540.848C697.405 544.75 695.481 549.969 692.733 556.066C687.266 568.197 678.347 584.228 664.336 600.294C635.368 633.511 586.981 664 511.581 664C436.164 664 387.916 633.491 359.119 600.15C345.204 584.039 336.398 567.967 331.021 555.811C328.319 549.701 326.434 544.471 325.175 540.56C324.544 538.601 324.067 536.96 323.72 535.691C323.546 535.056 323.404 534.513 323.292 534.068C323.236 533.846 323.188 533.647 323.146 533.474C323.125 533.388 323.106 533.308 323.088 533.234C323.079 533.197 323.071 533.162 323.063 533.129L323.052 533.079C323.048 533.055 322.114 527.007 323.052 533.079L323.04 533.032C318.056 511.512 331.462 490.025 352.982 485.04Z" fill="#CFD2D7"/>
<path d="M879 464C879 295.395 723.278 144 512 144C300.722 144 145 295.395 145 464C145 597.269 240.571 718.259 386.292 764.699C422.272 776.166 444.317 802.161 455.751 817.063C462.063 825.291 467.818 833.852 472.294 840.541C477.203 847.877 480.928 853.496 484.9 858.987C499.723 879.478 504.834 879.96 512.435 880.001C519.4 880.039 524.171 880.091 539 859.5C542.96 854.001 546.684 848.354 551.583 840.989C556.05 834.273 561.796 825.668 568.095 817.405C579.454 802.502 601.534 776.228 637.708 764.699L639.413 764.151C784.174 717.313 879 596.748 879 464ZM959 464C959 637.828 835.091 785.758 662 840.922C615.114 855.864 604 960.5 512 960C420.359 959.502 408.975 856.672 362.548 841.101L362 840.922C188.909 785.758 65 637.828 65 464C65 243.086 265.129 64 512 64C758.871 64 959 243.086 959 464Z" fill="#858B97"/>
</svg>
