<svg width="1024" height="1024" viewBox="0 0 1024 1024" fill="none" xmlns="http://www.w3.org/2000/svg">
<path d="M432 520H592C614.1 520 632 537.9 632 560C632 582.1 614.1 600 592 600H432C409.9 600 392 582.1 392 560C392 537.9 409.9 520 432 520Z" fill="#CFD2D7"/>
<path d="M880 440H144C99.9 440 64 404.1 64 360V240C64 195.9 99.9 160 144 160H880C924.1 160 960 195.9 960 240V360C960 404.1 924.1 440 880 440ZM144 240V360H880V240H144Z" fill="#858B97"/>
<path d="M722.2 912H301.8C237.8 912 185.1 861.9 181.9 798L160 360H864L842.1 798C838.9 861.9 786.3 912 722.2 912ZM244.1 440L261.8 794C262.9 815.3 280.4 832 301.7 832H722.2C743.5 832 761.1 815.3 762.2 794L779.9 440H244.1Z" fill="#858B97"/>
</svg>
