<svg width="1024" height="1024" viewBox="0 0 1024 1024" fill="none" xmlns="http://www.w3.org/2000/svg">
<path d="M824 896H200C133.8 896 80 842.2 80 776V242C80 175.8 133.8 122 200 122H396.6C417.1 122 437.5 127.3 455.4 137.4C473.3 147.5 488.4 162 499.1 179.6L530.3 230.9C537.5 242.7 550.6 250.1 564.5 250.1H824C890.2 250.1 944 303.9 944 370.1V776.1C944 842.2 890.2 896 824 896ZM200 202C177.9 202 160 219.9 160 242V776C160 798.1 177.9 816 200 816H824C846.1 816 864 798.1 864 776V370C864 347.9 846.1 330 824 330H564.5C544 330 523.6 324.7 505.7 314.6C487.8 304.5 472.7 290 462 272.4L430.8 221.1C423.6 209.3 410.5 201.9 396.6 201.9H200V202Z" fill="#346BFA"/>
<path d="M432 656H592C614.1 656 632 673.9 632 696C632 718.1 614.1 736 592 736H432C409.9 736 392 718.1 392 696C392 673.9 409.9 656 432 656Z" fill="#346BFA"/>
</svg>
